<?xml version="1.0" encoding="utf-8"?>
<!-- Generator: Adobe Illustrator 16.0.3, SVG Export Plug-In . SVG Version: 6.00 Build 0)  -->
<!DOCTYPE svg PUBLIC "-//W3C//DTD SVG 1.1//EN" "http://www.w3.org/Graphics/SVG/1.1/DTD/svg11.dtd">
<svg version="1.1" id="Capa_1" xmlns="http://www.w3.org/2000/svg" xmlns:xlink="http://www.w3.org/1999/xlink" x="0px" y="0px"
	 width="804px" height="918px" viewBox="0 0 804 918" enable-background="new 0 0 804 918" xml:space="preserve">
<linearGradient id="SVGID_1_" gradientUnits="userSpaceOnUse" x1="60.6772" y1="966.8809" x2="395.8341" y2="-285.5238">
	<stop  offset="0" style="stop-color:#1D2026"/>
	<stop  offset="0.1692" style="stop-color:#21252C"/>
	<stop  offset="0.482" style="stop-color:#262C35"/>
	<stop  offset="0.7679" style="stop-color:#282F39"/>
	<stop  offset="1" style="stop-color:#28313B"/>
</linearGradient>
<polygon fill="url(#SVGID_1_)" points="169.467,902.41 6,902.41 221.231,24.872 384.698,24.872 "/>
<g>
	<linearGradient id="SVGID_2_" gradientUnits="userSpaceOnUse" x1="380.6772" y1="-177.9536" x2="759.647" y2="1061.5311">
		<stop  offset="0" style="stop-color:#1D2026"/>
		<stop  offset="0.1692" style="stop-color:#21252C"/>
		<stop  offset="0.482" style="stop-color:#262C35"/>
		<stop  offset="0.7679" style="stop-color:#282F39"/>
		<stop  offset="1" style="stop-color:#28313B"/>
	</linearGradient>
	<path fill="url(#SVGID_2_)" d="M779.984,229.887C724.894,84.872,484.222-5.958,242.257,26.869H221.34l215.232,877.54h163.467
		l-89.506-364.933C711.499,490.8,829.652,360.633,779.984,229.887z M491.75,426.323c-1.713,0.234-3.428,0.45-5.146,0.648
		l-10.341-27.22l-70.124-285.906c99.993-1.341,197.408,52.794,226.789,130.129C665.455,329.606,602.248,411.246,491.75,426.323z"/>
</g>
</svg>
